<svg width="25" height="25" viewBox="0 0 25 25" fill="none" xmlns="http://www.w3.org/2000/svg">
<path d="M15.7513 11.165L15.073 11.0522C15.0566 11.1507 15.0619 11.2516 15.0884 11.3478C15.115 11.4441 15.1622 11.5334 15.2267 11.6095C15.2913 11.6857 15.3716 11.7469 15.4622 11.7888C15.5528 11.8308 15.6515 11.8525 15.7513 11.8525V11.165ZM5.66797 11.165V10.4775C5.48563 10.4775 5.31076 10.5499 5.18183 10.6788C5.0529 10.8078 4.98047 10.9826 4.98047 11.165H5.66797ZM7.5013 21.0191H17.9146V19.6441H7.5013V21.0191ZM19.0146 10.4775H15.7513V11.8525H19.0146V10.4775ZM16.4296 11.2777L17.1685 6.84565L15.8118 6.61923L15.073 11.0522L16.4296 11.2777ZM15.5863 4.97748H15.3901V6.35248H15.5854L15.5863 4.97748ZM12.5292 6.50831L10.2238 9.9669L11.3678 10.7296L13.6732 7.27098L12.5292 6.50831ZM9.27047 10.4775H5.66797V11.8525H9.27047V10.4775ZM4.98047 11.165V18.4983H6.35547V11.165H4.98047ZM20.3869 18.9933L21.4869 13.4933L20.1394 13.2229L19.0394 18.7229L20.3869 18.9933ZM10.2238 9.9669C10.1192 10.1239 9.97747 10.2517 9.81116 10.3408C9.64485 10.4299 9.45913 10.4765 9.27047 10.4766V11.8516C10.1138 11.8516 10.9003 11.4308 11.3678 10.7296L10.2238 9.9669ZM17.1685 6.84565C17.2067 6.6159 17.1944 6.37968 17.1325 6.15516C17.0705 5.93064 16.9605 5.7223 16.8099 5.54461C16.6594 5.36692 16.4719 5.22415 16.2606 5.12621C16.0493 5.02827 15.8192 4.97752 15.5863 4.97748L15.5854 6.35248C15.6186 6.35256 15.6523 6.35987 15.6825 6.37389C15.7126 6.38792 15.7393 6.40832 15.7608 6.4337C15.7822 6.45907 15.7979 6.48881 15.8067 6.52085C15.8155 6.55288 15.8173 6.58645 15.8118 6.61923L17.1685 6.84565ZM19.0146 11.8516C19.7388 11.8516 20.2796 12.5134 20.1385 13.222L21.4869 13.4924C21.5598 13.1267 21.5508 12.7485 21.4603 12.3868C21.3698 12.0251 21.2003 11.6879 20.9638 11.3996C20.7273 11.1113 20.4298 10.8791 20.0928 10.7196C19.7557 10.5602 19.3875 10.4775 19.0146 10.4775V11.8516ZM17.9146 21.0191C18.4974 21.0193 19.0621 20.8166 19.5129 20.4472C19.9636 20.0779 20.2725 19.5638 20.3869 18.9924L19.0394 18.722C18.9874 18.9819 18.8469 19.2159 18.6418 19.3838C18.4367 19.5518 18.1797 19.6444 17.9146 19.6441V21.0191ZM15.3901 4.97748C14.8242 4.97752 14.2671 5.11635 13.7682 5.3834C13.2693 5.65045 12.844 6.03653 12.5301 6.5074L13.6732 7.27098C13.8616 6.98833 14.1169 6.75568 14.4165 6.59545C14.716 6.43521 15.0504 6.35235 15.3901 6.35248V4.97748ZM7.5013 19.6441C6.8688 19.6441 6.35547 19.1308 6.35547 18.4983H4.98047C4.98047 19.1669 5.24606 19.8081 5.7188 20.2808C6.19155 20.7536 6.83274 21.0191 7.5013 21.0191V19.6441Z" fill="#878787"/>
<path d="M9.33594 11.1641V20.3307" stroke="#878787"/>
</svg>
