<svg width="58" height="58" viewBox="0 0 58 58" fill="none" xmlns="http://www.w3.org/2000/svg">
<g filter="url(#filter0_d_822_1505)">
<rect x="4" width="50" height="50" rx="25" fill="#F0F0F0"/>
<path d="M37.75 36.25V33.75C37.75 32.4239 37.2232 31.1521 36.2855 30.2145C35.3479 29.2768 34.0761 28.75 32.75 28.75H25.25C23.9239 28.75 22.6521 29.2768 21.7145 30.2145C20.7768 31.1521 20.25 32.4239 20.25 33.75V36.25" stroke="#C5C5C5" stroke-width="2" stroke-linecap="round" stroke-linejoin="round"/>
<path d="M29 23.75C31.7614 23.75 34 21.5114 34 18.75C34 15.9886 31.7614 13.75 29 13.75C26.2386 13.75 24 15.9886 24 18.75C24 21.5114 26.2386 23.75 29 23.75Z" stroke="#C5C5C5" stroke-width="2" stroke-linecap="round" stroke-linejoin="round"/>
</g>
<defs>
<filter id="filter0_d_822_1505" x="0" y="0" width="58" height="58" filterUnits="userSpaceOnUse" color-interpolation-filters="sRGB">
<feFlood flood-opacity="0" result="BackgroundImageFix"/>
<feColorMatrix in="SourceAlpha" type="matrix" values="0 0 0 0 0 0 0 0 0 0 0 0 0 0 0 0 0 0 127 0" result="hardAlpha"/>
<feOffset dy="4"/>
<feGaussianBlur stdDeviation="2"/>
<feComposite in2="hardAlpha" operator="out"/>
<feColorMatrix type="matrix" values="0 0 0 0 0 0 0 0 0 0 0 0 0 0 0 0 0 0 0.25 0"/>
<feBlend mode="normal" in2="BackgroundImageFix" result="effect1_dropShadow_822_1505"/>
<feBlend mode="normal" in="SourceGraphic" in2="effect1_dropShadow_822_1505" result="shape"/>
</filter>
</defs>
</svg>
