<svg width="560" height="402" viewBox="0 0 560 402" fill="none" xmlns="http://www.w3.org/2000/svg">
<g clip-path="url(#clip0_623_1957)">
<g clip-path="url(#clip1_623_1957)">
<mask id="mask0_623_1957" style="mask-type:luminance" maskUnits="userSpaceOnUse" x="-110" y="159" width="798" height="391">
<path d="M688 159.766H-110V549.766H688V159.766Z" fill="white"/>
</mask>
<g mask="url(#mask0_623_1957)">
<path d="M687.566 354.807C687.566 408.048 643.254 456.489 571.056 491.671C498.915 526.824 399.193 548.591 288.998 548.591C178.803 548.591 79.081 526.824 6.94003 491.671C-65.2583 456.489 -109.57 408.048 -109.57 354.807C-109.57 301.566 -65.2583 253.125 6.94003 217.944C79.081 182.79 178.803 161.023 288.998 161.023C399.193 161.023 498.915 182.79 571.056 217.944C643.254 253.125 687.566 301.566 687.566 354.807Z" stroke="#FF6C26" stroke-width="1.69243"/>
<path d="M289.259 544.077C393.167 544.077 477.401 459.843 477.401 355.935C477.401 252.027 393.167 167.793 289.259 167.793C185.351 167.793 101.117 252.027 101.117 355.935C101.117 459.843 185.351 544.077 289.259 544.077Z" stroke="#FF6C26" stroke-width="10.7188" stroke-dasharray="1.69 14.67"/>
<path d="M289.262 550.282C396.598 550.282 483.61 463.269 483.61 355.934C483.61 248.599 396.598 161.586 289.262 161.586C181.927 161.586 94.9141 248.599 94.9141 355.934C94.9141 463.269 181.927 550.282 289.262 550.282Z" stroke="#FF6C26" stroke-width="1.69243"/>
<path d="M289 162.434V546.105" stroke="#FF6C26" stroke-width="1.69243"/>
<path d="M688.419 355.695H-110.414" stroke="#FF6C26" stroke-width="1.69243"/>
<path d="M582.05 225.055L4.97656 490.284" stroke="#FF6C26" stroke-width="1.69243"/>
<path d="M326.381 355.968C326.381 361.103 322.446 365.95 315.638 369.564C308.867 373.158 299.454 375.406 289.011 375.406C278.568 375.406 269.156 373.158 262.385 369.564C255.577 365.95 251.641 361.103 251.641 355.968C251.641 350.834 255.577 345.987 262.385 342.373C269.156 338.779 278.568 336.531 289.011 336.531C299.454 336.531 308.867 338.779 315.638 342.373C322.446 345.987 326.381 350.834 326.381 355.968Z" fill="#1E1E1E" stroke="#FF6C26" stroke-width="1.69243"/>
<path d="M415.332 329.874C428.328 323.213 433.464 307.278 426.803 294.282C420.142 281.286 404.207 276.15 391.211 282.811C378.215 289.472 373.079 305.407 379.74 318.403C386.401 331.399 402.336 336.535 415.332 329.874Z" fill="#1E1E1E"/>
<path d="M392.617 311.927L412.143 301.918" stroke="#FF6C26" stroke-width="1.69243"/>
<path d="M416.977 299.958L409.107 312.14L402.492 299.234L416.977 299.958Z" fill="#FF6C26"/>
<path d="M282.358 346.613V366.028H279.812V346.613H282.358ZM293.969 348.969V366.028H291.396V348.969H285.411V346.613H299.952V348.969H293.969Z" fill="#FF6C26"/>
</g>
</g>
</g>
<defs>
<clipPath id="clip0_623_1957">
<rect width="688" height="492" fill="white" transform="translate(0 0.765625)"/>
</clipPath>
<clipPath id="clip1_623_1957">
<rect width="798" height="390" fill="white" transform="translate(-110 159.766)"/>
</clipPath>
</defs>
</svg>
